<svg xmlns="http://www.w3.org/2000/svg" xmlns:xlink="http://www.w3.org/1999/xlink" width="500" zoomAndPan="magnify" viewBox="0 0 375 374.999991" height="500" preserveAspectRatio="xMidYMid meet" version="1.0"><defs><g/><clipPath id="cb89175a65"><path d="M 37.5 37.5 L 337.5 37.5 L 337.5 337.5 L 37.5 337.5 Z M 37.5 37.5 " clip-rule="nonzero"/></clipPath></defs><g clip-path="url(#cb89175a65)"><path fill="#ffffff" d="M 37.5 37.5 L 337.5 37.5 L 337.5 337.5 L 37.5 337.5 Z M 37.5 37.5 " fill-opacity="1" fill-rule="nonzero"/></g><g fill="#000000" fill-opacity="1"><g transform="translate(98.067743, 269.215002)"><g><path d="M 15.84375 -48.953125 L 30.4375 -48.953125 L 30.4375 -0.859375 C 30.4375 -0.285156 30.050781 0 29.28125 0 L 16.890625 0 C 16.191406 0 15.84375 -0.285156 15.84375 -0.859375 Z M 1.0625 -63.640625 C 0.351562 -63.640625 0 -63.929688 0 -64.515625 L 0 -75.9375 C 0 -76.507812 0.351562 -76.796875 1.0625 -76.796875 L 45.125 -76.796875 C 45.820312 -76.796875 46.171875 -76.507812 46.171875 -75.9375 L 46.171875 -64.515625 C 46.171875 -63.929688 45.820312 -63.640625 45.125 -63.640625 Z M 1.0625 -63.640625 "/></g></g></g><g fill="#000000" fill-opacity="1"><g transform="translate(146.547751, 269.215002)"><g><path d="M 52.421875 -1.25 C 52.546875 -0.925781 52.523438 -0.632812 52.359375 -0.375 C 52.203125 -0.125 51.929688 0 51.546875 0 L 37.828125 0 C 37.316406 0 36.992188 -0.191406 36.859375 -0.578125 L 22.84375 -31.015625 L 14.59375 -31.015625 L 14.59375 -0.859375 C 14.59375 -0.285156 14.238281 0 13.53125 0 L 0.953125 0 C 0.316406 0 0 -0.285156 0 -0.859375 L 0 -45.125 L 25.828125 -45.125 C 26.585938 -45.125 27.609375 -45.1875 28.890625 -45.3125 C 30.171875 -45.4375 31.4375 -45.785156 32.6875 -46.359375 C 33.9375 -46.941406 34.992188 -47.820312 35.859375 -49 C 36.722656 -50.1875 37.15625 -51.835938 37.15625 -53.953125 C 37.15625 -56.066406 36.691406 -57.726562 35.765625 -58.9375 C 34.835938 -60.15625 33.703125 -61.035156 32.359375 -61.578125 C 31.015625 -62.128906 29.734375 -62.484375 28.515625 -62.640625 C 27.296875 -62.796875 26.398438 -62.875 25.828125 -62.875 L 0 -62.875 L 0 -75.9375 C 0 -76.507812 0.316406 -76.796875 0.953125 -76.796875 L 25.828125 -76.796875 C 26.722656 -76.796875 28.160156 -76.710938 30.140625 -76.546875 C 32.128906 -76.390625 34.351562 -75.957031 36.8125 -75.25 C 39.28125 -74.550781 41.648438 -73.398438 43.921875 -71.796875 C 46.191406 -70.203125 48.0625 -67.960938 49.53125 -65.078125 C 51.007812 -62.203125 51.75 -58.492188 51.75 -53.953125 C 51.75 -50.046875 51.109375 -46.734375 49.828125 -44.015625 C 48.546875 -41.296875 46.832031 -39.070312 44.6875 -37.34375 C 42.539062 -35.613281 40.1875 -34.269531 37.625 -33.3125 C 40.0625 -27.875 42.539062 -22.5 45.0625 -17.1875 C 47.59375 -11.875 50.046875 -6.5625 52.421875 -1.25 Z M 52.421875 -1.25 "/></g></g><g transform="translate(201.747747, 269.215002)"><g><path d="M 43.578125 -62.109375 L 61.4375 -62.109375 L 42.90625 -36.09375 L 42.90625 -0.859375 C 42.90625 -0.285156 42.554688 0 41.859375 0 L 29.28125 0 C 28.570312 0 28.21875 -0.285156 28.21875 -0.859375 L 28.21875 -36.09375 C 23.613281 -42.6875 18.957031 -49.242188 14.25 -55.765625 C 9.550781 -62.296875 4.863281 -68.828125 0.1875 -75.359375 C -0.0625 -75.679688 -0.09375 -76 0.09375 -76.3125 C 0.289062 -76.632812 0.644531 -76.796875 1.15625 -76.796875 L 16.3125 -76.796875 C 16.757812 -76.796875 17.082031 -76.703125 17.28125 -76.515625 L 35.515625 -50.875 Z M 43.578125 -62.109375 "/></g></g></g><g fill="#000000" fill-opacity="1"><g transform="translate(108.740506, 177.949565)"><g><path d="M 43.0625 -13.609375 C 43.726562 -13.609375 44.0625 -13.332031 44.0625 -12.78125 L 44.0625 -0.828125 C 44.0625 -0.273438 43.695312 0 42.96875 0 L 1.203125 0 C 0.210938 0 -0.125 -0.398438 0.1875 -1.203125 L 5.25 -13.609375 Z M 1.015625 -59.890625 C 0.335938 -59.890625 0 -60.195312 0 -60.8125 L 0 -72.765625 C 0 -73.316406 0.335938 -73.59375 1.015625 -73.59375 L 42.875 -73.59375 C 43.726562 -73.59375 44.066406 -73.195312 43.890625 -72.40625 L 25.9375 -27.6875 L 10.859375 -27.6875 L 23.734375 -59.890625 Z M 1.015625 -59.890625 "/></g></g></g><g fill="#000000" fill-opacity="1"><g transform="translate(155.012605, 177.949565)"><g><path d="M 34.953125 -13.703125 L 34.953125 0 L 1.015625 0 C 0.335938 0 0 -0.273438 0 -0.828125 L 0 -72.765625 C 0 -73.316406 0.335938 -73.59375 1.015625 -73.59375 L 34.953125 -73.59375 L 34.953125 -60.265625 L 14.078125 -60.265625 L 14.078125 -43.609375 L 42.96875 -43.609375 C 43.632812 -43.609375 43.96875 -43.332031 43.96875 -42.78125 L 43.96875 -31.09375 C 43.96875 -30.539062 43.632812 -30.265625 42.96875 -30.265625 L 14.078125 -30.265625 L 14.078125 -13.703125 Z M 34.953125 -13.703125 "/></g></g></g><g fill="#000000" fill-opacity="1"><g transform="translate(201.192716, 177.949565)"><g><path d="M 60.90625 -73.59375 C 61.582031 -73.59375 61.921875 -73.316406 61.921875 -72.765625 L 61.921875 -0.828125 C 61.921875 -0.273438 61.582031 0 60.90625 0 L 48.765625 0 C 48.703125 0 48.5625 -0.03125 48.34375 -0.09375 C 48.132812 -0.15625 48 -0.21875 47.9375 -0.28125 L 14.078125 -48.765625 L 14.078125 -17.65625 L 0 -17.65625 L 0 -72.765625 C 0 -73.316406 0.304688 -73.59375 0.921875 -73.59375 L 13.15625 -73.59375 C 13.28125 -73.59375 13.429688 -73.578125 13.609375 -73.546875 C 13.796875 -73.523438 13.921875 -73.453125 13.984375 -73.328125 L 47.9375 -24.84375 L 47.9375 -72.765625 C 47.9375 -73.316406 48.300781 -73.59375 49.03125 -73.59375 Z M 60.90625 -73.59375 "/></g></g></g></svg>