<svg xmlns="http://www.w3.org/2000/svg" xmlns:xlink="http://www.w3.org/1999/xlink" width="500" zoomAndPan="magnify" viewBox="0 0 375 374.999991" height="500" preserveAspectRatio="xMidYMid meet" version="1.0"><defs><g/><clipPath id="41e5256cbb"><path d="M 65 54.527344 L 337.4375 54.527344 L 337.4375 224 L 65 224 Z M 65 54.527344 " clip-rule="nonzero"/></clipPath><clipPath id="6b2e814463"><path d="M 30.6875 139 L 303 139 L 303 308.027344 L 30.6875 308.027344 Z M 30.6875 139 " clip-rule="nonzero"/></clipPath></defs><g clip-path="url(#41e5256cbb)"><path fill="#ffffff" d="M 252.925781 99.175781 L 181.125 223.53125 L 239.933594 223.53125 L 337.511719 54.523438 L 65.777344 54.523438 L 65.777344 99.175781 L 252.925781 99.175781 " fill-opacity="1" fill-rule="nonzero"/></g><g clip-path="url(#6b2e814463)"><path fill="#ffffff" d="M 30.671875 308.035156 L 302.40625 308.035156 L 302.40625 263.382812 L 115.257812 263.382812 L 187.058594 139.027344 L 128.25 139.027344 L 30.671875 308.035156 " fill-opacity="1" fill-rule="nonzero"/></g><g fill="#ffffff" fill-opacity="1"><g transform="translate(108.863435, 295.384053)"><g><path d="M 1.5 0 L 1.5 -12.078125 L 2.78125 -12.078125 L 2.78125 -5.03125 L 2.984375 -5.03125 L 6.1875 -8.625 L 7.53125 -8.625 L 7.53125 -8.4375 L 4.109375 -4.578125 L 7.859375 -0.203125 L 7.859375 0 L 6.4375 0 L 2.984375 -3.984375 L 2.78125 -3.984375 L 2.78125 0 Z M 1.5 0 "/></g></g></g><g fill="#ffffff" fill-opacity="1"><g transform="translate(116.877102, 295.384053)"><g><path d="M 2.140625 -10.28125 C 1.867188 -10.28125 1.648438 -10.363281 1.484375 -10.53125 C 1.316406 -10.707031 1.234375 -10.925781 1.234375 -11.1875 C 1.234375 -11.445312 1.316406 -11.660156 1.484375 -11.828125 C 1.648438 -11.992188 1.867188 -12.078125 2.140625 -12.078125 C 2.410156 -12.078125 2.628906 -11.992188 2.796875 -11.828125 C 2.972656 -11.660156 3.0625 -11.445312 3.0625 -11.1875 C 3.0625 -10.925781 2.972656 -10.707031 2.796875 -10.53125 C 2.628906 -10.363281 2.410156 -10.28125 2.140625 -10.28125 Z M 0.421875 3.65625 C 0.148438 3.65625 -0.0859375 3.632812 -0.296875 3.59375 C -0.503906 3.5625 -0.707031 3.507812 -0.90625 3.4375 L -0.703125 2.453125 L -0.5625 2.40625 C -0.300781 2.5 -0.03125 2.546875 0.25 2.546875 C 0.65625 2.546875 0.960938 2.410156 1.171875 2.140625 C 1.390625 1.878906 1.5 1.5 1.5 1 L 1.5 -8.625 L 2.78125 -8.625 L 2.78125 0.953125 C 2.78125 1.816406 2.570312 2.484375 2.15625 2.953125 C 1.75 3.421875 1.171875 3.65625 0.421875 3.65625 Z M 0.421875 3.65625 "/></g></g></g><g fill="#ffffff" fill-opacity="1"><g transform="translate(121.149502, 295.384053)"><g><path d="M 0.5 2.390625 C 0.945312 2.085938 1.328125 1.738281 1.640625 1.34375 C 1.953125 0.957031 2.113281 0.53125 2.125 0.0625 C 1.820312 0.0625 1.582031 -0.0195312 1.40625 -0.1875 C 1.226562 -0.351562 1.140625 -0.578125 1.140625 -0.859375 C 1.140625 -1.128906 1.222656 -1.347656 1.390625 -1.515625 C 1.566406 -1.691406 1.796875 -1.78125 2.078125 -1.78125 C 2.378906 -1.78125 2.625 -1.671875 2.8125 -1.453125 C 3.007812 -1.242188 3.109375 -0.910156 3.109375 -0.453125 C 3.109375 0.359375 2.929688 1.039062 2.578125 1.59375 C 2.234375 2.15625 1.71875 2.664062 1.03125 3.125 Z M 0.5 2.390625 "/></g></g></g><g fill="#ffffff" fill-opacity="1"><g transform="translate(125.390659, 295.384053)"><g><path d="M 1.5 0 L 1.5 -8.625 L 2.71875 -8.625 L 2.71875 -7.34375 L 2.875 -7.3125 C 3.164062 -7.800781 3.519531 -8.164062 3.9375 -8.40625 C 4.351562 -8.65625 4.847656 -8.78125 5.421875 -8.78125 C 6.085938 -8.78125 6.601562 -8.65625 6.96875 -8.40625 C 7.332031 -8.15625 7.617188 -7.75 7.828125 -7.1875 L 7.984375 -7.1875 C 8.285156 -7.707031 8.648438 -8.101562 9.078125 -8.375 C 9.515625 -8.644531 10.050781 -8.78125 10.6875 -8.78125 C 11.570312 -8.78125 12.234375 -8.539062 12.671875 -8.0625 C 13.109375 -7.582031 13.328125 -6.851562 13.328125 -5.875 L 13.328125 0 L 12.046875 0 L 12.046875 -5.84375 C 12.046875 -6.46875 11.914062 -6.925781 11.65625 -7.21875 C 11.394531 -7.519531 10.972656 -7.671875 10.390625 -7.671875 C 9.703125 -7.671875 9.140625 -7.421875 8.703125 -6.921875 C 8.265625 -6.421875 8.046875 -5.597656 8.046875 -4.453125 L 8.046875 0 L 6.78125 0 L 6.78125 -5.84375 C 6.78125 -6.46875 6.644531 -6.925781 6.375 -7.21875 C 6.113281 -7.519531 5.691406 -7.671875 5.109375 -7.671875 C 4.421875 -7.671875 3.859375 -7.425781 3.421875 -6.9375 C 2.992188 -6.457031 2.78125 -5.675781 2.78125 -4.59375 L 2.78125 0 Z M 1.5 0 "/></g></g></g><g fill="#ffffff" fill-opacity="1"><g transform="translate(140.074572, 295.384053)"><g><path d="M 1.5 0 L 1.5 -8.625 L 2.71875 -8.625 L 2.71875 -7.34375 L 2.875 -7.3125 C 3.164062 -7.800781 3.519531 -8.164062 3.9375 -8.40625 C 4.351562 -8.65625 4.847656 -8.78125 5.421875 -8.78125 C 6.085938 -8.78125 6.601562 -8.65625 6.96875 -8.40625 C 7.332031 -8.15625 7.617188 -7.75 7.828125 -7.1875 L 7.984375 -7.1875 C 8.285156 -7.707031 8.648438 -8.101562 9.078125 -8.375 C 9.515625 -8.644531 10.050781 -8.78125 10.6875 -8.78125 C 11.570312 -8.78125 12.234375 -8.539062 12.671875 -8.0625 C 13.109375 -7.582031 13.328125 -6.851562 13.328125 -5.875 L 13.328125 0 L 12.046875 0 L 12.046875 -5.84375 C 12.046875 -6.46875 11.914062 -6.925781 11.65625 -7.21875 C 11.394531 -7.519531 10.972656 -7.671875 10.390625 -7.671875 C 9.703125 -7.671875 9.140625 -7.421875 8.703125 -6.921875 C 8.265625 -6.421875 8.046875 -5.597656 8.046875 -4.453125 L 8.046875 0 L 6.78125 0 L 6.78125 -5.84375 C 6.78125 -6.46875 6.644531 -6.925781 6.375 -7.21875 C 6.113281 -7.519531 5.691406 -7.671875 5.109375 -7.671875 C 4.421875 -7.671875 3.859375 -7.425781 3.421875 -6.9375 C 2.992188 -6.457031 2.78125 -5.675781 2.78125 -4.59375 L 2.78125 0 Z M 1.5 0 "/></g></g></g><g fill="#ffffff" fill-opacity="1"><g transform="translate(154.758485, 295.384053)"><g><path d="M 0.5 2.390625 C 0.945312 2.085938 1.328125 1.738281 1.640625 1.34375 C 1.953125 0.957031 2.113281 0.53125 2.125 0.0625 C 1.820312 0.0625 1.582031 -0.0195312 1.40625 -0.1875 C 1.226562 -0.351562 1.140625 -0.578125 1.140625 -0.859375 C 1.140625 -1.128906 1.222656 -1.347656 1.390625 -1.515625 C 1.566406 -1.691406 1.796875 -1.78125 2.078125 -1.78125 C 2.378906 -1.78125 2.625 -1.671875 2.8125 -1.453125 C 3.007812 -1.242188 3.109375 -0.910156 3.109375 -0.453125 C 3.109375 0.359375 2.929688 1.039062 2.578125 1.59375 C 2.234375 2.15625 1.71875 2.664062 1.03125 3.125 Z M 0.5 2.390625 "/></g></g></g><g fill="#ffffff" fill-opacity="1"><g transform="translate(158.999642, 295.384053)"><g><path d="M 1.5 0 L 1.5 -8.625 L 2.71875 -8.625 L 2.71875 -7.34375 L 2.875 -7.3125 C 3.164062 -7.800781 3.519531 -8.164062 3.9375 -8.40625 C 4.351562 -8.65625 4.847656 -8.78125 5.421875 -8.78125 C 6.085938 -8.78125 6.601562 -8.65625 6.96875 -8.40625 C 7.332031 -8.15625 7.617188 -7.75 7.828125 -7.1875 L 7.984375 -7.1875 C 8.285156 -7.707031 8.648438 -8.101562 9.078125 -8.375 C 9.515625 -8.644531 10.050781 -8.78125 10.6875 -8.78125 C 11.570312 -8.78125 12.234375 -8.539062 12.671875 -8.0625 C 13.109375 -7.582031 13.328125 -6.851562 13.328125 -5.875 L 13.328125 0 L 12.046875 0 L 12.046875 -5.84375 C 12.046875 -6.46875 11.914062 -6.925781 11.65625 -7.21875 C 11.394531 -7.519531 10.972656 -7.671875 10.390625 -7.671875 C 9.703125 -7.671875 9.140625 -7.421875 8.703125 -6.921875 C 8.265625 -6.421875 8.046875 -5.597656 8.046875 -4.453125 L 8.046875 0 L 6.78125 0 L 6.78125 -5.84375 C 6.78125 -6.46875 6.644531 -6.925781 6.375 -7.21875 C 6.113281 -7.519531 5.691406 -7.671875 5.109375 -7.671875 C 4.421875 -7.671875 3.859375 -7.425781 3.421875 -6.9375 C 2.992188 -6.457031 2.78125 -5.675781 2.78125 -4.59375 L 2.78125 0 Z M 1.5 0 "/></g></g></g><g fill="#ffffff" fill-opacity="1"><g transform="translate(173.683555, 295.384053)"><g><path d="M 0.5 2.390625 C 0.945312 2.085938 1.328125 1.738281 1.640625 1.34375 C 1.953125 0.957031 2.113281 0.53125 2.125 0.0625 C 1.820312 0.0625 1.582031 -0.0195312 1.40625 -0.1875 C 1.226562 -0.351562 1.140625 -0.578125 1.140625 -0.859375 C 1.140625 -1.128906 1.222656 -1.347656 1.390625 -1.515625 C 1.566406 -1.691406 1.796875 -1.78125 2.078125 -1.78125 C 2.378906 -1.78125 2.625 -1.671875 2.8125 -1.453125 C 3.007812 -1.242188 3.109375 -0.910156 3.109375 -0.453125 C 3.109375 0.359375 2.929688 1.039062 2.578125 1.59375 C 2.234375 2.15625 1.71875 2.664062 1.03125 3.125 Z M 0.5 2.390625 "/></g></g></g><g fill="#ffffff" fill-opacity="1"><g transform="translate(177.924713, 295.384053)"><g><path d="M 1.5 0 L 1.5 -8.625 L 2.71875 -8.625 L 2.71875 -7.34375 L 2.875 -7.3125 C 3.164062 -7.800781 3.519531 -8.164062 3.9375 -8.40625 C 4.351562 -8.65625 4.847656 -8.78125 5.421875 -8.78125 C 6.085938 -8.78125 6.601562 -8.65625 6.96875 -8.40625 C 7.332031 -8.15625 7.617188 -7.75 7.828125 -7.1875 L 7.984375 -7.1875 C 8.285156 -7.707031 8.648438 -8.101562 9.078125 -8.375 C 9.515625 -8.644531 10.050781 -8.78125 10.6875 -8.78125 C 11.570312 -8.78125 12.234375 -8.539062 12.671875 -8.0625 C 13.109375 -7.582031 13.328125 -6.851562 13.328125 -5.875 L 13.328125 0 L 12.046875 0 L 12.046875 -5.84375 C 12.046875 -6.46875 11.914062 -6.925781 11.65625 -7.21875 C 11.394531 -7.519531 10.972656 -7.671875 10.390625 -7.671875 C 9.703125 -7.671875 9.140625 -7.421875 8.703125 -6.921875 C 8.265625 -6.421875 8.046875 -5.597656 8.046875 -4.453125 L 8.046875 0 L 6.78125 0 L 6.78125 -5.84375 C 6.78125 -6.46875 6.644531 -6.925781 6.375 -7.21875 C 6.113281 -7.519531 5.691406 -7.671875 5.109375 -7.671875 C 4.421875 -7.671875 3.859375 -7.425781 3.421875 -6.9375 C 2.992188 -6.457031 2.78125 -5.675781 2.78125 -4.59375 L 2.78125 0 Z M 1.5 0 "/></g></g></g><g fill="#ffffff" fill-opacity="1"><g transform="translate(192.608626, 295.384053)"><g><path d="M 0.5 2.390625 C 0.945312 2.085938 1.328125 1.738281 1.640625 1.34375 C 1.953125 0.957031 2.113281 0.53125 2.125 0.0625 C 1.820312 0.0625 1.582031 -0.0195312 1.40625 -0.1875 C 1.226562 -0.351562 1.140625 -0.578125 1.140625 -0.859375 C 1.140625 -1.128906 1.222656 -1.347656 1.390625 -1.515625 C 1.566406 -1.691406 1.796875 -1.78125 2.078125 -1.78125 C 2.378906 -1.78125 2.625 -1.671875 2.8125 -1.453125 C 3.007812 -1.242188 3.109375 -0.910156 3.109375 -0.453125 C 3.109375 0.359375 2.929688 1.039062 2.578125 1.59375 C 2.234375 2.15625 1.71875 2.664062 1.03125 3.125 Z M 0.5 2.390625 "/></g></g></g><g fill="#ffffff" fill-opacity="1"><g transform="translate(196.849783, 295.384053)"><g><path d="M 1.5 0 L 1.5 -8.625 L 2.71875 -8.625 L 2.71875 -7.34375 L 2.875 -7.3125 C 3.164062 -7.800781 3.519531 -8.164062 3.9375 -8.40625 C 4.351562 -8.65625 4.847656 -8.78125 5.421875 -8.78125 C 6.085938 -8.78125 6.601562 -8.65625 6.96875 -8.40625 C 7.332031 -8.15625 7.617188 -7.75 7.828125 -7.1875 L 7.984375 -7.1875 C 8.285156 -7.707031 8.648438 -8.101562 9.078125 -8.375 C 9.515625 -8.644531 10.050781 -8.78125 10.6875 -8.78125 C 11.570312 -8.78125 12.234375 -8.539062 12.671875 -8.0625 C 13.109375 -7.582031 13.328125 -6.851562 13.328125 -5.875 L 13.328125 0 L 12.046875 0 L 12.046875 -5.84375 C 12.046875 -6.46875 11.914062 -6.925781 11.65625 -7.21875 C 11.394531 -7.519531 10.972656 -7.671875 10.390625 -7.671875 C 9.703125 -7.671875 9.140625 -7.421875 8.703125 -6.921875 C 8.265625 -6.421875 8.046875 -5.597656 8.046875 -4.453125 L 8.046875 0 L 6.78125 0 L 6.78125 -5.84375 C 6.78125 -6.46875 6.644531 -6.925781 6.375 -7.21875 C 6.113281 -7.519531 5.691406 -7.671875 5.109375 -7.671875 C 4.421875 -7.671875 3.859375 -7.425781 3.421875 -6.9375 C 2.992188 -6.457031 2.78125 -5.675781 2.78125 -4.59375 L 2.78125 0 Z M 1.5 0 "/></g></g></g><g fill="#ffffff" fill-opacity="1"><g transform="translate(211.533696, 295.384053)"><g><path d="M 1.5 0 L 1.5 -8.625 L 2.71875 -8.625 L 2.71875 -7.265625 L 2.875 -7.234375 C 3.164062 -7.734375 3.53125 -8.113281 3.96875 -8.375 C 4.414062 -8.644531 4.960938 -8.78125 5.609375 -8.78125 C 6.640625 -8.78125 7.390625 -8.515625 7.859375 -7.984375 C 8.328125 -7.460938 8.5625 -6.648438 8.5625 -5.546875 L 8.5625 0 L 7.28125 0 L 7.28125 -5.515625 C 7.28125 -6.035156 7.210938 -6.453125 7.078125 -6.765625 C 6.953125 -7.085938 6.75 -7.316406 6.46875 -7.453125 C 6.1875 -7.597656 5.820312 -7.671875 5.375 -7.671875 C 4.59375 -7.671875 3.960938 -7.414062 3.484375 -6.90625 C 3.015625 -6.394531 2.78125 -5.566406 2.78125 -4.421875 L 2.78125 0 Z M 1.5 0 "/></g></g></g><g fill="#ffffff" fill-opacity="1"><g transform="translate(221.453148, 295.384053)"><g><path d="M 0.5 2.390625 C 0.945312 2.085938 1.328125 1.738281 1.640625 1.34375 C 1.953125 0.957031 2.113281 0.53125 2.125 0.0625 C 1.820312 0.0625 1.582031 -0.0195312 1.40625 -0.1875 C 1.226562 -0.351562 1.140625 -0.578125 1.140625 -0.859375 C 1.140625 -1.128906 1.222656 -1.347656 1.390625 -1.515625 C 1.566406 -1.691406 1.796875 -1.78125 2.078125 -1.78125 C 2.378906 -1.78125 2.625 -1.671875 2.8125 -1.453125 C 3.007812 -1.242188 3.109375 -0.910156 3.109375 -0.453125 C 3.109375 0.359375 2.929688 1.039062 2.578125 1.59375 C 2.234375 2.15625 1.71875 2.664062 1.03125 3.125 Z M 0.5 2.390625 "/></g></g></g><g fill="#ffffff" fill-opacity="1"><g transform="translate(225.694305, 295.384053)"><g><path d="M 1.5 0 L 1.5 -8.625 L 2.71875 -8.625 L 2.71875 -7.34375 L 2.875 -7.3125 C 3.164062 -7.800781 3.519531 -8.164062 3.9375 -8.40625 C 4.351562 -8.65625 4.847656 -8.78125 5.421875 -8.78125 C 6.085938 -8.78125 6.601562 -8.65625 6.96875 -8.40625 C 7.332031 -8.15625 7.617188 -7.75 7.828125 -7.1875 L 7.984375 -7.1875 C 8.285156 -7.707031 8.648438 -8.101562 9.078125 -8.375 C 9.515625 -8.644531 10.050781 -8.78125 10.6875 -8.78125 C 11.570312 -8.78125 12.234375 -8.539062 12.671875 -8.0625 C 13.109375 -7.582031 13.328125 -6.851562 13.328125 -5.875 L 13.328125 0 L 12.046875 0 L 12.046875 -5.84375 C 12.046875 -6.46875 11.914062 -6.925781 11.65625 -7.21875 C 11.394531 -7.519531 10.972656 -7.671875 10.390625 -7.671875 C 9.703125 -7.671875 9.140625 -7.421875 8.703125 -6.921875 C 8.265625 -6.421875 8.046875 -5.597656 8.046875 -4.453125 L 8.046875 0 L 6.78125 0 L 6.78125 -5.84375 C 6.78125 -6.46875 6.644531 -6.925781 6.375 -7.21875 C 6.113281 -7.519531 5.691406 -7.671875 5.109375 -7.671875 C 4.421875 -7.671875 3.859375 -7.425781 3.421875 -6.9375 C 2.992188 -6.457031 2.78125 -5.675781 2.78125 -4.59375 L 2.78125 0 Z M 1.5 0 "/></g></g></g><g fill="#ffffff" fill-opacity="1"><g transform="translate(240.378218, 295.384053)"><g><path d="M 0.5 2.390625 C 0.945312 2.085938 1.328125 1.738281 1.640625 1.34375 C 1.953125 0.957031 2.113281 0.53125 2.125 0.0625 C 1.820312 0.0625 1.582031 -0.0195312 1.40625 -0.1875 C 1.226562 -0.351562 1.140625 -0.578125 1.140625 -0.859375 C 1.140625 -1.128906 1.222656 -1.347656 1.390625 -1.515625 C 1.566406 -1.691406 1.796875 -1.78125 2.078125 -1.78125 C 2.378906 -1.78125 2.625 -1.671875 2.8125 -1.453125 C 3.007812 -1.242188 3.109375 -0.910156 3.109375 -0.453125 C 3.109375 0.359375 2.929688 1.039062 2.578125 1.59375 C 2.234375 2.15625 1.71875 2.664062 1.03125 3.125 Z M 0.5 2.390625 "/></g></g></g><g fill="#ffffff" fill-opacity="1"><g transform="translate(244.619376, 295.384053)"><g><path d="M 1.5 0 L 1.5 -8.625 L 2.71875 -8.625 L 2.71875 -7.34375 L 2.875 -7.3125 C 3.164062 -7.800781 3.519531 -8.164062 3.9375 -8.40625 C 4.351562 -8.65625 4.847656 -8.78125 5.421875 -8.78125 C 6.085938 -8.78125 6.601562 -8.65625 6.96875 -8.40625 C 7.332031 -8.15625 7.617188 -7.75 7.828125 -7.1875 L 7.984375 -7.1875 C 8.285156 -7.707031 8.648438 -8.101562 9.078125 -8.375 C 9.515625 -8.644531 10.050781 -8.78125 10.6875 -8.78125 C 11.570312 -8.78125 12.234375 -8.539062 12.671875 -8.0625 C 13.109375 -7.582031 13.328125 -6.851562 13.328125 -5.875 L 13.328125 0 L 12.046875 0 L 12.046875 -5.84375 C 12.046875 -6.46875 11.914062 -6.925781 11.65625 -7.21875 C 11.394531 -7.519531 10.972656 -7.671875 10.390625 -7.671875 C 9.703125 -7.671875 9.140625 -7.421875 8.703125 -6.921875 C 8.265625 -6.421875 8.046875 -5.597656 8.046875 -4.453125 L 8.046875 0 L 6.78125 0 L 6.78125 -5.84375 C 6.78125 -6.46875 6.644531 -6.925781 6.375 -7.21875 C 6.113281 -7.519531 5.691406 -7.671875 5.109375 -7.671875 C 4.421875 -7.671875 3.859375 -7.425781 3.421875 -6.9375 C 2.992188 -6.457031 2.78125 -5.675781 2.78125 -4.59375 L 2.78125 0 Z M 1.5 0 "/></g></g></g></svg>